<svg xmlns="http://www.w3.org/2000/svg" viewBox="0 0 47.46 50.35"><defs><style>.cls-1{fill:#010101;}.cls-2{fill:#fff;}</style></defs><g id="Calque_1" data-name="Calque 1"><path id="Icon_awesome-book" data-name="Icon awesome-book" class="cls-1" d="M32.4,26.8V3.18a1.68,1.68,0,0,0-1.68-1.69H7.65A6.75,6.75,0,0,0,.9,8.24v22.5a6.75,6.75,0,0,0,6.75,6.75H30.72a1.68,1.68,0,0,0,1.68-1.68h0V34.68a1.73,1.73,0,0,0-.62-1.32,15.42,15.42,0,0,1,0-5.25A1.7,1.7,0,0,0,32.4,26.8ZM9.9,10.91a.42.42,0,0,1,.42-.42H25.23a.42.42,0,0,1,.42.42v1.41a.42.42,0,0,1-.42.42H10.32a.42.42,0,0,1-.42-.42Zm0,4.5a.42.42,0,0,1,.42-.42H25.23a.42.42,0,0,1,.42.42v1.41a.42.42,0,0,1-.42.42H10.32a.42.42,0,0,1-.42-.42ZM27.72,33H7.65a2.25,2.25,0,1,1,0-4.5H27.72A26,26,0,0,0,27.72,33Z"/><ellipse class="cls-2" cx="31.96" cy="35.12" rx="11.81" ry="12.21"/><g id="Icon_ionic-md-add-circle-outline" data-name="Icon ionic-md-add-circle-outline"><path id="Path_8" data-name="Path 8" class="cls-1" d="M39.93,36.6h-6v6h-3v-6H24.88v-3h6.05v-6h3v6h6Z"/><path id="Path_9" data-name="Path 9" class="cls-1" d="M32.4,23.45a11.68,11.68,0,1,1-8.25,3.42,11.66,11.66,0,0,1,8.25-3.42m0-2.95A14.63,14.63,0,1,0,47,35.12,14.63,14.63,0,0,0,32.4,20.5Z"/></g></g></svg>