<svg xmlns="http://www.w3.org/2000/svg" width="705.522" height="651.49" viewBox="0 0 705.522 651.49">
  <g id="Icon_ionic-ios-book" data-name="Icon ionic-ios-book" transform="translate(-3.382 -4.5)">
    <path id="Path_2" data-name="Path 2" d="M169.5,4.507c91.8,0,169.678,47.34,169.678,139.136v27.148h0V652.507c0,3.733-5.26,4.581-6.448,1.188v-.17C315.25,595.5,267.91,538.823,193.082,533.9c-58.03-3.733-113.515,21.888-157.97,62.951-2.715,2.545-7.3,4.921-11.2,4.921H16.278c-6.278,0-12.9-4.581-12.9-10.35V99.7C3.213,45.23,77.7,4.507,169.5,4.507Z" transform="translate(0 0.163)"/>
    <path id="Path_3" data-name="Path 3" d="M188.381,4.5C96.585,4.5,18.7,51.84,18.7,143.636v27.148h0V652.5c0,3.733,5.26,4.581,6.448,1.188v-.17C42.628,595.489,92,538.307,164.8,533.9c55.824-3.394,108.424,18.665,157.97,62.951,2.715,2.375,7.3,4.921,11.2,4.921H341.6c6.278,0,12.9-4.581,12.9-10.35V99.52C354.666,45.223,280.177,4.5,188.381,4.5Z" transform="translate(354.408 0)"/>
  </g>
</svg>
