<svg xmlns="http://www.w3.org/2000/svg" width="30" height="30" viewBox="0 0 30 30">
  <path id="se-connecter" d="M21.974,16.172H1.172a1.172,1.172,0,1,1,0-2.344h20.8L17.75,8.844a1.172,1.172,0,0,1,1.788-1.515L25.4,14.242a1.175,1.175,0,0,1,0,1.515l-5.859,6.914a1.172,1.172,0,0,1-1.788-1.515ZM28.828,0H18.644a1.172,1.172,0,0,0,0,2.344h9.012V27.656H18.644a1.172,1.172,0,0,0-1.172,1.172,1.2,1.2,0,0,0,.058.365A1.167,1.167,0,0,0,18.644,30H28.828A1.172,1.172,0,0,0,30,28.828V1.172A1.172,1.172,0,0,0,28.828,0Zm0,0"/>
</svg>
