<svg xmlns="http://www.w3.org/2000/svg" viewBox="0 0 36.54 40.6"><defs><style>.cls-1{fill:#010101;}.cls-2{fill:#fff;}.cls-2,.cls-3{stroke:#010101;stroke-linecap:round;stroke-linejoin:round;}.cls-3{fill:none;}</style></defs><g id="Calque_1" data-name="Calque 1"><path id="Icon_awesome-book" data-name="Icon awesome-book" class="cls-1" d="M32,26.35V2.73A1.69,1.69,0,0,0,30.35,1H7.28A6.75,6.75,0,0,0,.53,7.79v22.5A6.75,6.75,0,0,0,7.28,37H30.34A1.69,1.69,0,0,0,32,35.36h0V34.23a1.69,1.69,0,0,0-.63-1.32,16,16,0,0,1,0-5.25A1.67,1.67,0,0,0,32,26.35ZM9.53,10.46A.42.42,0,0,1,10,10H24.86a.42.42,0,0,1,.42.42v1.41a.42.42,0,0,1-.42.42H10a.42.42,0,0,1-.42-.42Zm0,4.5a.42.42,0,0,1,.42-.42H24.86a.42.42,0,0,1,.42.42v1.41a.42.42,0,0,1-.42.42H10a.42.42,0,0,1-.42-.42ZM27.35,32.54H7.28a2.25,2.25,0,0,1,0-4.5H27.35A24.16,24.16,0,0,0,27.35,32.54Z"/><circle class="cls-2" cx="28.08" cy="32.28" r="7.41"/><g id="Icon_feather-clock" data-name="Icon feather-clock"><path id="Path_10" data-name="Path 10" class="cls-3" d="M33.62,32.28a5.54,5.54,0,1,1-5.54-5.53A5.54,5.54,0,0,1,33.62,32.28Z"/><path id="Path_11" data-name="Path 11" class="cls-3" d="M28.08,29v3.32l2.22,1.1"/></g></g></svg>