<svg xmlns="http://www.w3.org/2000/svg" width="30" height="30" viewBox="0 0 30 30">
  <g id="pencil" transform="translate(-14.997)">
    <path id="Path_4" data-name="Path 4" d="M37.345,14.243a.477.477,0,0,0-.475.479v8.257H31.322a.477.477,0,0,0-.475.479v5.585h-14.9V.957H36.923a.475.475,0,0,0,.9-.22V.479A.477.477,0,0,0,37.345,0H15.473A.477.477,0,0,0,15,.479V29.521a.477.477,0,0,0,.475.479h15.85l.047,0,.035-.005.011,0,.04-.01h.005l.039-.014.005,0,.035-.017.007,0,.03-.018.01-.006.027-.02.011-.008.031-.028,0,0L37.682,23.8l0,0c.01-.01.02-.021.029-.032l.007-.009.021-.028,0-.008c.007-.01.013-.021.019-.032l0-.006c.006-.012.012-.024.017-.036l0,0c.005-.013.01-.026.014-.04v0c0-.013.007-.027.01-.04s0-.008,0-.012,0-.023.005-.035,0-.032,0-.048V14.722A.477.477,0,0,0,37.345,14.243ZM36.2,23.936l-4.4,4.429V23.936Z"/>
    <path id="Path_5" data-name="Path 5" d="M72.306,33.945a2.13,2.13,0,0,0-.729-1.592l-1.884-1.7a2.492,2.492,0,0,0-.589-.394,2.762,2.762,0,0,0-2.37.008,2.493,2.493,0,0,0-.573.386l-2.355,2.123L62.05,34.36,48.44,46.629l0,0-.012.012a.447.447,0,0,0-.094.133l-1.923,4.209,0,.006-1.372,3a.419.419,0,0,0,.109.49.467.467,0,0,0,.037.03.534.534,0,0,0,.316.1.548.548,0,0,0,.19-.034l3.332-1.237h0l4.671-1.734a.51.51,0,0,0,.147-.085l.013-.011,0,0,13.61-12.269,4.11-3.705A2.13,2.13,0,0,0,72.306,33.945ZM48.95,52.4l-1.491-1.345,1.612-3.53a2.147,2.147,0,0,1,.529.349,1.672,1.672,0,0,1,.585,1.546.423.423,0,0,0,.139.4.535.535,0,0,0,.44.125,2.1,2.1,0,0,1,1.715.527,1.954,1.954,0,0,1,.387.477Zm13.1-13.154a.539.539,0,0,0,.706,0l2-1.8,1.648,1.486L53.675,50.4a2.9,2.9,0,0,0-.491-.572,3.183,3.183,0,0,0-1.37-.723l9.058-8.166a.42.42,0,0,0,0-.637.539.539,0,0,0-.706,0L51.108,48.47a2.742,2.742,0,0,0-.8-1.235,3.134,3.134,0,0,0-.635-.442L62.4,35.315,64.052,36.8l-2,1.8A.42.42,0,0,0,62.051,39.242Zm1.06-4.564,1.049-.945,4,3.609-1.049.945ZM47.047,51.954l.9.814-1.535.57ZM71.3,34.079a1.287,1.287,0,0,1-.429.821l-2,1.8-4-3.609,2-1.8c.036-.032.073-.063.112-.091.017-.012.035-.023.052-.035s.044-.031.067-.045.051-.028.076-.041l.049-.026c.036-.017.074-.033.111-.047L67.353,31A1.677,1.677,0,0,1,68.5,31l.014.006c.039.015.078.031.116.049l.045.024c.027.014.054.028.08.043s.043.028.064.043.037.023.055.036c.038.028.076.059.112.091l1.884,1.7a1.287,1.287,0,0,1,.429.821,1.258,1.258,0,0,1,0,.269Z" transform="translate(-27.309 -27.306)"/>
  </g>
</svg>
